<svg aria-hidden="true"
       focusable="false"
       id="Layer_1" 
       data-name="Layer 1" xmlns="http://www.w3.org/2000/svg" viewBox="0 0 356.62 442.31"><defs><style>.cls-1,.cls-2,.cls-4,.cls-5,.cls-8{fill:none;}.cls-1,.cls-2,.cls-3,.cls-4,.cls-5,.cls-6,.cls-7,.cls-8,.cls-9{stroke:#000;stroke-miterlimit:10;}.cls-1,.cls-2,.cls-3,.cls-4,.cls-5{stroke-width:2px;}.cls-2{stroke-dasharray:5.8 5.8;}.cls-3{fill:#fefefe;}.cls-3,.cls-4,.cls-6,.cls-7{fill-rule:evenodd;}.cls-5{stroke-dasharray:5.84 5.84;}.cls-7{fill:#fff;}</style></defs><line class="cls-1" x1="88.5" y1="158.31" x2="346" y2="158.31"/><path class="cls-1" d="M630.5,273.5" transform="translate(-604.5 -115.19)"/><path class="cls-1" d="M603,274" transform="translate(-604.5 -115.19)"/><line class="cls-1" x1="146.5" y1="244.31" x2="146.5" y2="352.31"/><line class="cls-1" x1="251.5" y1="352.31" x2="251.5" y2="441.81"/><line class="cls-1" x1="251" y1="441.31" x2="254" y2="441.31"/><line class="cls-2" x1="259.8" y1="441.31" x2="338.1" y2="441.31"/><line class="cls-1" x1="341" y1="441.31" x2="344" y2="441.31"/><line class="cls-1" x1="146" y1="352.31" x2="252" y2="352.31"/><path class="cls-3" d="M873.66,273.5a44.25,44.25,0,1,0-80.82,0Z" transform="translate(-604.5 -115.19)"/><line class="cls-1" x1="188.5" y1="167.31" x2="269" y2="167.31"/><line class="cls-1" x1="184" y1="174.31" x2="280" y2="174.31"/><line class="cls-1" x1="274.5" y1="167.31" x2="280" y2="167.31"/><line class="cls-1" x1="174.6" y1="174.21" x2="180.1" y2="174.21"/><line class="cls-1" x1="176.5" y1="181.31" x2="286" y2="181.31"/><line class="cls-1" x1="169.59" y1="188.69" x2="175" y2="188.69"/><line class="cls-1" x1="198.59" y1="188.69" x2="216" y2="188.69"/><line class="cls-1" x1="264" y1="188.69" x2="294" y2="188.31"/><line class="cls-1" x1="232.59" y1="188.69" x2="237" y2="188.69"/><line class="cls-1" x1="239.59" y1="188.69" x2="244" y2="188.69"/><line class="cls-1" x1="180" y1="188.69" x2="183" y2="188.69"/><path class="cls-4" d="M707.5,425.5s21-33,66-24,51,21,94,18,53-12,73-28l20-16" transform="translate(-604.5 -115.19)"/><path class="cls-1" d="M873.5,432.5s1.07-.14,3-.44" transform="translate(-604.5 -115.19)"/><path class="cls-5" d="M882.22,431.09c18.1-3.21,59.1-12.1,72.25-28.52" transform="translate(-604.5 -115.19)"/><path class="cls-1" d="M956.16,400.18a18.11,18.11,0,0,0,1.34-2.68" transform="translate(-604.5 -115.19)"/><path class="cls-6" d="M664.67,343.26l-1.09-26.15a2.45,2.45,0,0,1,1.45-2.58c2-.5,5.36-1.06,6.25.44,1.09,1.81,3.08,21.77,3.7,28.33a2.61,2.61,0,0,1-1.23,2.69l-3,1.31a1.3,1.3,0,0,1-1.09,0l-3.77-1.81A2.54,2.54,0,0,1,664.67,343.26Z" transform="translate(-604.5 -115.19)"/><path class="cls-6" d="M655.13,342.34l-.08-25.43c0-1.21.48-2.28,1.13-2.48,1.47-.44,3.93-.92,4.55.56.74,1.78,1.63,21.22,1.91,27.61a2.89,2.89,0,0,1-1,2.59l-2.24,1.2a.73.73,0,0,1-.8,0l-2.69-1.85A2.69,2.69,0,0,1,655.13,342.34Z" transform="translate(-604.5 -115.19)"/><circle class="cls-1" cx="252.25" cy="318.81" r="3.75"/><path class="cls-7" d="M654.64,344l1.4.74a8.29,8.29,0,0,0,7.83,0h0a1.19,1.19,0,0,1,1.72.91c.61,3.56,1.58,11.72-2.05,13-2.25.81-19.54.81-19.54.81h-9.5s-3-4.24-1-5.3a12.71,12.71,0,0,1,5-1.06l9.3-1.79a4.49,4.49,0,0,0,2.76-1.77Z" transform="translate(-604.5 -115.19)"/><circle class="cls-1" cx="306.73" cy="277.17" r="2.5"/><circle class="cls-1" cx="218.23" cy="271.17" r="10"/><path class="cls-7" d="M664.64,344.87l1.4.71a8.77,8.77,0,0,0,7.83,0h0a1.19,1.19,0,0,1,1.72.86c.61,3.35,1.58,11.05-2.05,12.29-2.25.77-19.54.77-19.54.77h-9.5s-3-4-1-5a13.38,13.38,0,0,1,5-1l9.3-1.69a4.53,4.53,0,0,0,2.76-1.68Z" transform="translate(-604.5 -115.19)"/><line class="cls-1" y1="244.31" x2="146.5" y2="244.31"/><path class="cls-7" d="M691.32,179c.45,3.6,3,24.52,3.94,35.46,1,12.33-2.1,57.5-2.1,57.5-.74,30,5,62,.6,52s-19-7-30-2c-9.62,4.37-27.66,2.63-32,2.12a1,1,0,0,1-.85-1.09l10.76-80.26a.32.32,0,0,0-.57-.25c-4.43,6.1-14.23,63.16-16.58,72-1.11,4.18,11.1,0,6.26,1.5" transform="translate(-604.5 -115.19)"/><path class="cls-7" d="M649.5,169.5l16-6c2.24-1.06,4.65,0,7.06.59" transform="translate(-604.5 -115.19)"/><path class="cls-7" d="M649,185l-2-5-2-9,2-1,3-1c1,0,2,9,2,9a23.27,23.27,0,0,1-1.69,5.06A7.41,7.41,0,0,1,649,185c-2,2-7.5,58.5-7.5,58.5" transform="translate(-604.5 -115.19)"/><circle class="cls-8" cx="43" cy="99.31" r="1"/><path class="cls-7" d="M658.19,243.08c-4,5-6.55,5-3.88,14,2.06,7,7.06,6.94,7.06,6.94s5,1,12.94-7.11,7.19-11.44,7.19-11.44c2-3-11.2,10.47-23.31-2.42-2.82-3,10-5.09,10.88-14.1S663.73,189,663.73,189l-12.1-10.9" transform="translate(-604.5 -115.19)"/><path class="cls-6" d="M681.5,245.5l4.3-59.17a2.5,2.5,0,0,0,0-.67,40,40,0,0,0-2.62-10c-1.28-2.86-3.11-5.09-5.66-4.7-6.47,1-13,0-13,9l-.28,4.35c.22,8.15-2.75,3.3-4.21,1.64l-.22-.24c-.45-.52-.57-.45-.49-.77a9.49,9.49,0,0,0,.22-1.06l.39-2.69a14.25,14.25,0,0,1,3.3-7.31l1.23-1.4a12.62,12.62,0,0,1,6.45-3.85l2.18-.56a7.77,7.77,0,0,1,4.67.25l4.66,1.75a5.4,5.4,0,0,1,1.77,1.09c4.25,3.91,4,.36,2.27-1.7l-8-4c-.27-.32-1.62.15-2,0l-3-1c-5.06-2.51-12.32,1-4-3,.06,0,6.94-1,7-1,5.5.85,11.86,6.5,14,10a7.28,7.28,0,0,0,3,2l10,3c1.51.23.86,1.43.37,3l-.37,1a2.24,2.24,0,0,0,0,1c1.89,3.09,2.52,6.87,3.17,10.44l3.83,20.56c.25.93-.58,2.87-2,4-.41.32-1.65,1.62-2,2v1l-1,1c0,1.41-4.5,3.06-5.8,3.13l-5.42.31a2.38,2.38,0,0,1-2.15-1.16L684.5,206.5" transform="translate(-604.5 -115.19)"/><path class="cls-6" d="M690.5,184.5" transform="translate(-604.5 -115.19)"/><polygon class="cls-7" points="90 93.31 86 67.31 83 66.31 83 69.31 81 90.31 91.2 98.31 90 93.31"/><path class="cls-6" d="M652.5,129.5" transform="translate(-604.5 -115.19)"/><path class="cls-6" d="M700.5,119.5" transform="translate(-604.5 -115.19)"/><path class="cls-7" d="M651,135.77a5.72,5.72,0,0,1,3.56,6.47l-1.41,7a3.08,3.08,0,0,1-3.81,2.37l-10.75-2.87a3.08,3.08,0,0,1-1.72-1.21l-4.36-6.08,5-11,2-6" transform="translate(-604.5 -115.19)"/><path class="cls-7" d="M642,132.16" transform="translate(-604.5 -115.19)"/><path class="cls-6" d="M657.81,151a2.91,2.91,0,0,0,1-1.33L661,144a3,3,0,0,1,2-1.83h0a3,3,0,0,1,3.46,1.77l1,2.61c.68,2-1,3.61-2.06,4.41a2.91,2.91,0,0,0-1.08,3.23c.74,2.28,3.14,7.36,3.14,7.36l10.64-15.16a13.55,13.55,0,0,0,3.36-9v-1.55l-3-12.34c-2.37-5.34-9-8.47-14.76-7.7l-17.19,2.29a15.9,15.9,0,0,1-6-.34h0a2.77,2.77,0,0,0-3.28,3.62l8.26,10.13,7,7-2,12-15-4-.46,5.94a7.5,7.5,0,0,0,6.48,8l4,.52a5.37,5.37,0,0,0,5.64-3.2A36.39,36.39,0,0,1,657.81,151Z" transform="translate(-604.5 -115.19)"/><line class="cls-9" x1="48" y1="53.31" x2="48.29" y2="40.53"/></svg>
